<svg viewBox="0 0 30 30" xmlns="http://www.w3.org/2000/svg" xmlns:xlink="http://www.w3.org/1999/xlink" width="30.000000" height="30.000000" fill="none" customFrame="#000000">
	<rect id="svg 3" width="30.000000" height="30.000000" x="0.000000" y="0.000000" />
	<path id="creditcard" d="M26.9285 0C28.0726 0 29 1.20883 29 2.7L29 24.3C29 25.7911 28.0726 27 26.9285 27L2.07143 27C0.927411 27 0 25.7911 0 24.3L0 2.7C0 1.20883 0.92741 0 2.07143 0L26.9285 0ZM2.07143 2.7L2.07143 6.75L26.9285 6.75L26.9285 2.7L2.07143 2.7ZM26.9285 9.45L2.07143 9.45L2.07143 24.3L26.9285 24.3L26.9285 9.45ZM11.3929 18.9L11.3929 21.6L5.17857 21.6L5.17857 18.9L11.3929 18.9Z" fill="rgb(255,255,255)" fill-opacity="0.898039222" fill-rule="evenodd" />
</svg>
