<svg viewBox="0 0 28 28" xmlns="http://www.w3.org/2000/svg" xmlns:xlink="http://www.w3.org/1999/xlink" width="28.000000" height="28.000000" fill="none" customFrame="#000000">
	<rect id="svg 7" width="28.000000" height="28.000000" x="0.000000" y="0.000000" />
	<path id="Union" d="M6.46154 7.53846C6.46154 11.7018 9.83662 15.0769 14.0001 15.0769C18.1633 15.0769 21.5385 11.7018 21.5385 7.53846C21.5385 3.37509 18.1633 0 14.0001 0C9.83662 0 6.46154 3.37509 6.46154 7.53846ZM8.61538 7.53846C8.61538 10.5123 11.0262 12.9231 14.0001 12.9231C16.9739 12.9231 19.3846 10.5123 19.3846 7.53846C19.3846 4.56462 16.9739 2.15385 14.0001 2.15385C11.0262 2.15385 8.61538 4.56462 8.61538 7.53846ZM28 22.0223L28 26.9231C28 27.5179 27.5179 28 26.9231 28L1.07693 28C0.482158 28 0 27.5179 0 26.9231L0 22.0223C0 21.2254 0.437265 20.4878 1.15632 20.1444C5.06025 18.2798 9.40479 17.2308 14.0001 17.2308C18.5952 17.2308 22.9397 18.2798 26.8436 20.1444C27.5628 20.4878 28 21.2254 28 22.0223ZM25.8462 25.8462L25.8462 22.0551C22.2399 20.3446 18.2357 19.3846 14.0001 19.3846C9.76425 19.3846 5.76012 20.3446 2.15385 22.0551L2.15385 25.8462L25.8462 25.8462Z" fill="rgb(255,255,255)" fill-opacity="0.898039222" fill-rule="evenodd" />
</svg>
