<svg xmlns="http://www.w3.org/2000/svg" width="1920" height="520" viewBox="0 0 1920 520">
  <defs>
    <style>
      text{font-family:"Noto Sans SC","Microsoft YaHei",sans-serif;fill:#f1f4f8}.muted{fill:#aeb7c2;font-size:22px}.label{font-size:22px;font-weight:800}.price{font-size:22px;font-weight:800}.gold{fill:#c9a24d}.up{fill:#42b56b}.down{fill:#d94a3f}
    </style>
  </defs>
  <rect width="1920" height="520" fill="#07101b"/>
  <text x="70" y="66" font-size="42" font-weight="900">12幕时间轴预览：衢州发展（原新湖中宝）七年阴跌史（2019-2026）</text>
  <g transform="translate(70 126)">
    <rect width="1780" height="82" fill="#111820" stroke="#3b3422"/>
    <rect x="0" y="0" width="99" height="82" fill="#20252c"/><text x="12" y="48" class="label">标题</text>
    <rect x="99" y="0" width="198" height="82" fill="#163223"/><text x="112" y="48" class="label">2019-2021</text>
    <rect x="297" y="0" width="198" height="82" fill="#321d1c"/><text x="310" y="48" class="label">2021-2024</text>
    <rect x="495" y="0" width="119" height="82" fill="#2f2a18"/><text x="506" y="48" class="label">最低价</text>
    <rect x="614" y="0" width="178" height="82" fill="#123046"/><text x="626" y="48" class="label">国资入主</text>
    <rect x="792" y="0" width="198" height="82" fill="#321d1c"/><text x="805" y="48" class="label">半导体爆炒</text>
    <rect x="990" y="0" width="198" height="82" fill="#2b2041"/><text x="1003" y="48" class="label">2026至今</text>
    <rect x="1188" y="0" width="198" height="82" fill="#20252c"/><text x="1201" y="48" class="label">五大原因</text>
    <rect x="1386" y="0" width="198" height="82" fill="#2f2a18"/><text x="1399" y="48" class="label">整体总结</text>
    <rect x="1584" y="0" width="99" height="82" fill="#111820"/><text x="1596" y="48" class="label">风险</text>
    <rect x="1683" y="0" width="59" height="82" fill="#20252c"/><text x="1690" y="48" class="label">互动</text>
    <rect x="1742" y="0" width="38" height="82" fill="#111820"/><text x="1749" y="48" class="label">尾</text>
  </g>
  <g transform="translate(70 248)">
    <text x="0" y="0" class="muted">00:00</text><text x="99" y="0" class="muted">00:05</text><text x="297" y="0" class="muted">00:15</text><text x="495" y="0" class="muted">00:25</text><text x="614" y="0" class="muted">00:31</text><text x="792" y="0" class="muted">00:40</text><text x="990" y="0" class="muted">00:50</text><text x="1188" y="0" class="muted">01:00</text><text x="1386" y="0" class="muted">01:10</text><text x="1584" y="0" class="muted">01:20</text><text x="1683" y="0" class="muted">01:25</text><text x="1742" y="0" class="muted">01:28</text><text x="1780" y="0" class="muted">01:30</text>
    <text x="99" y="58" class="price">2.80元 → <tspan class="up">5.13元</tspan></text>
    <text x="297" y="58" class="price">5.13元 → <tspan class="down">1.58元</tspan></text>
    <text x="495" y="58" class="price"><tspan class="down">1.58元</tspan> / 1.55元</text>
    <text x="792" y="58" class="price">1.58元 → <tspan class="up">6.03元</tspan> → <tspan class="down">3.50元</tspan></text>
    <text x="990" y="58" class="price">5.51元 → <tspan class="down">2.76元</tspan></text>
    <text x="1386" y="58" class="price">2.80 → 5.13 → 1.58 → 6.03 → 2.76</text>
    <text x="0" y="132" class="muted">12幕结构严格对应参考设计稿；不使用真实K线截图；不接入行情接口或fetch数据源。</text>
    <text x="0" y="174" class="muted">音频：男声旁白 100%；BGM 默认 15%，允许 12%-18%；最终渲染前补齐真实音频文件。</text>
  </g>
</svg>
