<svg viewBox="0 0 27 30" xmlns="http://www.w3.org/2000/svg" xmlns:xlink="http://www.w3.org/1999/xlink" width="27.000000" height="30.000000" fill="none" customFrame="#000000">
	<rect id="svg 4" width="27.000000" height="30.000000" x="0.000000" y="0.000000" />
	<path id="notification" d="M12.273 0L14.7271 0L14.7271 2.20171C20.2489 2.73468 24.5436 6.82227 24.5436 11.7857L24.5436 21.4286L26.7525 24C27.359 24.7063 26.782 25.7143 25.7708 25.7143L19.5127 25.7143C18.9443 28.1595 16.4683 30 13.5 30C10.5318 30 8.05586 28.1595 7.4874 25.7143L1.2293 25.7143C0.218137 25.7143 -0.359055 24.7063 0.247642 24L2.45638 21.4286L2.45638 11.7857C2.45638 6.82227 6.75118 2.73468 12.273 2.20171L12.273 0ZM23.3167 23.5714L22.0895 22.1428L22.0895 11.7857C22.0895 7.64357 18.2439 4.28571 13.5 4.28571C8.75617 4.28571 4.91052 7.64357 4.91052 11.7857L4.91052 22.1428L3.68345 23.5714L23.3167 23.5714ZM13.5 27.8571C15.1028 27.8571 16.4664 26.9627 16.9718 25.7143L10.0283 25.7143C10.5336 26.9627 11.8972 27.8571 13.5 27.8571Z" fill="rgb(255,255,255)" fill-rule="evenodd" />
</svg>
