<svg viewBox="0 0 28 28" xmlns="http://www.w3.org/2000/svg" xmlns:xlink="http://www.w3.org/1999/xlink" width="28.000000" height="28.000000" fill="none" customFrame="#000000">
	<rect id="svg 6" width="28.000000" height="28.000000" x="0.000000" y="0.000000" />
	<path id="Search" d="M11.1165 22.233C4.97705 22.233 0 17.256 0 11.1165C0 4.97703 4.97705 0 11.1165 0C17.2561 0 22.2331 4.97703 22.2331 11.1165C22.2331 13.7654 21.3067 16.1978 19.7602 18.1075L28 26.3473L26.3473 28L18.1075 19.7602C16.1978 21.3067 13.7654 22.233 11.1165 22.233ZM2.33726 11.1165C2.33726 15.9652 6.26787 19.8958 11.1165 19.8958C15.9653 19.8958 19.8958 15.9652 19.8958 11.1165C19.8958 6.26788 15.9653 2.33726 11.1165 2.33726C6.26787 2.33726 2.33726 6.26788 2.33726 11.1165Z" fill="rgb(255,255,255)" fill-opacity="0.898039222" fill-rule="evenodd" />
</svg>
