<svg viewBox="0 0 30 30" xmlns="http://www.w3.org/2000/svg" xmlns:xlink="http://www.w3.org/1999/xlink" width="30.000000" height="30.000000" fill="none" customFrame="#000000">
	<rect id="svg 2" width="30.000000" height="30.000000" x="0.000000" y="0.000000" />
	<path id="internet" d="M14.9998 0C23.2841 0 30 6.61979 30 14.7857L30 15.2143C30 23.3802 23.2843 30 15 30C6.71582 29.9999 0 23.3802 0 15.2143L0 14.7857C0 6.61986 6.71562 0.000113203 14.9998 0ZM27.797 13.9285C27.3953 8.01304 22.8656 3.21172 17.023 2.29922C19.6484 5.75304 21.066 9.81647 21.2758 13.9285L27.797 13.9285ZM12.9766 2.2993C7.13408 3.21198 2.60468 8.01319 2.20292 13.9285L8.72384 13.9285C8.93352 9.81649 10.3511 5.7531 12.9766 2.2993ZM10.9008 13.9285C11.1167 10.1244 12.483 6.37186 14.9998 3.22079C17.5166 6.37186 18.883 10.1244 19.0987 13.9285L10.9008 13.9285ZM12.9766 27.7007C7.13408 26.7881 2.60468 21.9868 2.20292 16.0715L8.72384 16.0715C8.93352 20.1835 10.3511 24.2468 12.9766 27.7007ZM14.9998 26.7792C12.483 23.6281 11.1167 19.8756 10.9008 16.0715L19.0987 16.0715C18.883 19.8756 17.5166 23.6281 14.9998 26.7792ZM21.2758 16.0715C21.066 20.1835 19.6484 24.247 17.023 27.7008C22.8656 26.7883 27.3953 21.987 27.797 16.0715L21.2758 16.0715Z" fill="rgb(255,245,245)" fill-opacity="0.898039222" fill-rule="evenodd" />
</svg>
